HIERARCHY
ROOT joint_Root
{
	OFFSET 0.0 0.0 0.0
	CHANNELS 6 Xposition Yposition Zposition Zrotation Xrotation Yrotation 
	JOINT Hips
	{
		OFFSET 4.5925 91.4895 -427.239
		CHANNELS 6 Xposition Yposition Zposition Zrotation Xrotation Yrotation 
		JOINT Spine
		{
			OFFSET 15.7357 0.0 0.0
			CHANNELS 6 Xposition Yposition Zposition Zrotation Xrotation Yrotation 
			JOINT Chest
			{
				OFFSET 8.98455 -0.406207 0.0
				CHANNELS 6 Xposition Yposition Zposition Zrotation Xrotation Yrotation 
				JOINT Neck
				{
					OFFSET 16.3773 0.0 0.0
					CHANNELS 6 Xposition Yposition Zposition Zrotation Xrotation Yrotation 
					JOINT Head
					{
						OFFSET 6.45672 0.0 0.0
						CHANNELS 6 Xposition Yposition Zposition Zrotation Xrotation Yrotation 
						End Site
						{
							OFFSET 0.0 0.0 0.0
						}
					}
				}
				JOINT Shoulder_L
				{
					OFFSET 12.9942 -0.242716 4.98039
					CHANNELS 6 Xposition Yposition Zposition Zrotation Xrotation Yrotation 
					JOINT UpperArm_L
					{
						OFFSET 5.34809 0.0 0.0
						CHANNELS 6 Xposition Yposition Zposition Zrotation Xrotation Yrotation 
						JOINT LowerArm_L
						{
							OFFSET 24.3286 1.87007e-05 0.0
							CHANNELS 6 Xposition Yposition Zposition Zrotation Xrotation Yrotation 
							JOINT Hand_L
							{
								OFFSET 22.2916 0.0 0.0
								CHANNELS 6 Xposition Yposition Zposition Zrotation Xrotation Yrotation 
								End Site
								{
									OFFSET 0.0 0.0 0.0
								}
							}
						}
					}
				}
				JOINT Shoulder_R
				{
					OFFSET 12.9945 -0.242716 -4.98039
					CHANNELS 6 Xposition Yposition Zposition Zrotation Xrotation Yrotation 
					JOINT UpperArm_R
					{
						OFFSET -5.34813 0.0 0.0
						CHANNELS 6 Xposition Yposition Zposition Zrotation Xrotation Yrotation 
						JOINT LowerArm_R
						{
							OFFSET -24.3289 0.000322201 0.0
							CHANNELS 6 Xposition Yposition Zposition Zrotation Xrotation Yrotation 
							JOINT Hand_R
							{
								OFFSET -22.2915 -0.000108084 0.0
								CHANNELS 6 Xposition Yposition Zposition Zrotation Xrotation Yrotation 
								End Site
								{
									OFFSET 0.0 0.0 0.0
								}
							}
						}
					}
				}
			}
		}
		JOINT UpperLeg_L
		{
			OFFSET -2.19248 -6.46944 0.0
			CHANNELS 6 Xposition Yposition Zposition Zrotation Xrotation Yrotation 
			JOINT LowerLeg_L
			{
				OFFSET 39.0811 0.0 -1.23785e-05
				CHANNELS 6 Xposition Yposition Zposition Zrotation Xrotation Yrotation 
				JOINT Foot_L
				{
					OFFSET 40.9854 0.0 -1.26872e-05
					CHANNELS 6 Xposition Yposition Zposition Zrotation Xrotation Yrotation 
					JOINT Toes_L
					{
						OFFSET 11.7543 0.0 0.0
						CHANNELS 6 Xposition Yposition Zposition Zrotation Xrotation Yrotation 
						End Site
						{
							OFFSET 0.0 0.0 0.0
						}
					}
				}
			}
		}
		JOINT UpperLeg_R
		{
			OFFSET -2.19251 6.46944 0.0
			CHANNELS 6 Xposition Yposition Zposition Zrotation Xrotation Yrotation 
			JOINT LowerLeg_R
			{
				OFFSET -39.0811 -0.00228153 -0.0401928
				CHANNELS 6 Xposition Yposition Zposition Zrotation Xrotation Yrotation 
				JOINT Foot_R
				{
					OFFSET -40.9854 0.0 0.0
					CHANNELS 6 Xposition Yposition Zposition Zrotation Xrotation Yrotation 
					JOINT Toes_R
					{
						OFFSET -11.7543 0.0 0.0
						CHANNELS 6 Xposition Yposition Zposition Zrotation Xrotation Yrotation 
						End Site
						{
							OFFSET 0.0 0.0 0.0
						}
					}
				}
			}
		}
	}
}
MOTION
Frames:	4
Frame Time:	0.0333333
0.000000 0.000000 0.000000 0.000000 0.000000 -0.000000 1.143080 89.160300 -493.607000 89.225700 -3.315750 -1.383880 15.735700 0.000005 -0.000001 96.476400 82.580500 -96.483000 8.984550 -0.406207 -0.000000 6.980660 1.668100 -0.114926 16.377300 -0.000001 -0.000001 -2.291940 -3.632860 2.648460 6.456720 -0.000001 -0.000000 -5.382220 -3.531730 0.790247 12.994200 -0.242716 4.980390 -90.132800 0.506622 -75.313600 5.348090 -0.000007 -0.000001 -70.762700 24.293400 -0.288775 24.328600 0.000019 0.000005 1.101640 0.381428 -70.918400 22.291600 -0.000001 0.000005 21.360200 5.488880 -6.090360 12.994500 -0.242716 -4.980390 89.244100 7.525390 -84.247800 -5.348130 -0.000001 -0.000004 -57.002800 27.552200 -19.654600 -24.328900 0.000322 -0.000009 -24.486100 -7.174870 -74.661200 -22.291500 -0.000108 -0.000004 26.724900 5.649490 -14.971700 -2.192480 -6.469440 -0.000000 178.879000 -5.575690 -24.894700 39.081100 -0.000007 -0.000012 -0.204855 0.243346 40.092000 40.985400 -0.000006 -0.000013 1.752010 -3.430810 -67.919700 11.754300 -0.000000 0.000003 -0.001372 -0.020567 -17.413100 -2.192510 6.469440 -0.000001 176.914000 15.368900 164.782000 -39.081100 -0.002282 -0.040193 0.221639 -0.105439 64.236700 -40.985400 0.000008 0.000006 7.442630 0.088836 -47.284200 -11.754300 -0.000006 -0.000006 -0.030093 -0.217888 -25.499700
0.000000 0.000000 0.000000 0.000000 0.000000 -0.000000 1.235570 87.761800 -489.461000 89.810100 -1.663640 -0.663984 15.735700 0.000005 -0.000001 90.351400 82.448800 -90.647500 8.984550 -0.406207 -0.000000 7.336480 0.093397 -0.597579 16.377300 -0.000001 -0.000001 -2.568660 -3.811050 2.316620 6.456720 -0.000001 -0.000000 -5.069310 -3.514770 1.808340 12.994200 -0.242716 4.980390 -90.412700 1.603050 -75.559300 5.348090 -0.000007 -0.000001 -66.846500 22.815100 -10.110800 24.328600 0.000019 0.000005 0.505480 0.118272 -76.857500 22.291600 -0.000001 0.000005 22.546200 5.489950 -6.135990 12.994500 -0.242716 -4.980390 89.054700 8.783310 -83.833200 -5.348130 -0.000001 -0.000004 -58.342800 30.213200 -13.349000 -24.328900 0.000322 -0.000009 -21.761600 -8.679040 -69.289500 -22.291500 -0.000108 -0.000004 27.362800 5.655350 -15.543400 -2.192480 -6.469440 -0.000000 178.473000 -3.130280 -24.070700 39.081100 -0.000007 -0.000012 -0.363953 0.357320 45.527600 40.985400 -0.000006 -0.000013 1.158370 -4.317360 -72.692500 11.754300 -0.000000 0.000003 0.000477 0.009739 -16.178400 -2.192510 6.469440 -0.000001 177.109000 14.488300 158.803000 -39.081100 -0.002282 -0.040193 0.214032 -0.057095 74.858900 -40.985400 0.000008 0.000006 8.292710 -4.108500 -48.741400 -11.754300 -0.000006 -0.000006 -0.015304 -0.139723 -22.274300
0.000000 0.000000 0.000000 0.000000 0.000000 -0.000000 1.220170 86.737000 -485.722000 89.688600 -0.965002 -0.743947 15.735700 0.000005 -0.000001 88.206600 82.327000 -88.531900 8.984550 -0.406207 -0.000000 7.571270 -0.477818 -0.618334 16.377300 -0.000001 -0.000001 -3.223310 -3.758520 1.704490 6.456720 -0.000001 -0.000000 -5.411330 -3.660510 2.107260 12.994200 -0.242716 4.980390 -90.626100 2.542190 -76.159600 5.348090 -0.000007 -0.000001 -62.904000 20.892900 -21.493500 24.328600 0.000019 0.000005 -0.472826 -0.075014 -80.872300 22.291600 -0.000001 0.000005 23.725800 5.497430 -6.431710 12.994500 -0.242716 -4.980390 88.892200 9.931020 -83.602500 -5.348130 -0.000001 -0.000004 -60.823400 30.279600 -5.631820 -24.328900 0.000322 -0.000009 -21.526500 -9.577320 -67.129200 -22.291500 -0.000108 -0.000004 27.184500 5.657430 -15.773500 -2.192480 -6.469440 -0.000000 178.756000 -3.560640 -23.037800 39.081100 -0.000007 -0.000012 -0.490575 0.427756 48.914400 40.985400 -0.000006 -0.000013 1.131100 -3.613800 -77.084600 11.754300 -0.000000 0.000003 -0.000051 -0.000580 -16.600100 -2.192510 6.469440 -0.000001 178.705000 12.410600 152.224000 -39.081100 -0.002282 -0.040193 0.133185 -0.021233 80.748900 -40.985400 0.000008 0.000006 9.195240 -5.278470 -53.210000 -11.754300 -0.000006 -0.000006 -0.015113 -0.138525 -22.225100
0.000000 0.000000 0.000000 0.000000 0.000000 -0.000000 1.243870 86.250200 -481.918000 89.653200 -0.739201 -1.181810 15.735700 0.000005 -0.000001 85.500800 82.345600 -85.852000 8.984550 -0.406207 -0.000000 7.493220 -1.195440 -0.623269 16.377300 -0.000001 -0.000001 -3.744190 -3.560420 1.329640 6.456720 -0.000001 -0.000000 -5.700140 -2.976480 2.055910 12.994200 -0.242716 4.980390 -90.585300 2.522190 -76.933400 5.348090 -0.000007 -0.000001 -61.432700 17.844500 -30.621000 24.328600 0.000019 0.000005 -1.011790 -0.104765 -84.104200 22.291600 -0.000001 0.000005 23.492400 5.504640 -6.721520 12.994500 -0.242716 -4.980390 88.819800 9.749270 -83.063200 -5.348130 -0.000001 -0.000004 -64.142700 30.186100 0.972870 -24.328900 0.000322 -0.000009 -22.384300 -10.789300 -65.555900 -22.291500 -0.000108 -0.000004 27.089900 5.652130 -15.221100 -2.192480 -6.469440 -0.000000 178.980000 -4.691140 -20.882400 39.081100 -0.000007 -0.000012 -0.542172 0.460809 49.639100 40.985400 -0.000006 -0.000013 1.295790 -2.666920 -80.410800 11.754300 -0.000000 0.000003 -0.000116 -0.001171 -16.622300 -2.192510 6.469440 -0.000001 179.804000 11.059100 146.504000 -39.081100 -0.002282 -0.040193 0.087187 -0.013436 80.952000 -40.985400 0.000008 0.000006 7.771290 -4.399290 -56.954300 -11.754300 -0.000006 -0.000006 -0.014859 -0.136929 -22.159600
